<?xml version="1.0" encoding="utf-8"?>
<!-- Generator: Adobe Illustrator 16.0.3, SVG Export Plug-In . SVG Version: 6.00 Build 0)  -->
<!DOCTYPE svg PUBLIC "-//W3C//DTD SVG 1.1//EN" "http://www.w3.org/Graphics/SVG/1.1/DTD/svg11.dtd">
<svg version="1.1" id="Capa_1" xmlns="http://www.w3.org/2000/svg" xmlns:xlink="http://www.w3.org/1999/xlink" x="0px" y="0px"
	 width="500px" height="500px" viewBox="0 0 500 500" enable-background="new 0 0 500 500" xml:space="preserve">
<path fill-rule="evenodd" clip-rule="evenodd" fill="#FFFFFF" d="M496.05,338.9c-0.42-17.54-3.88-34.341-10.819-50.631
	c-5.711-13.399-12.931-25.949-20.801-37.95c-9.35-14.25-19.01-28.43-29.979-41.61c-4.57-5.48-6.4-11.73-4.49-19.42
	c5.99-24.06-5.6-46.32-26.03-57.81c-2.17-1.22-5.239-2.8-7.319-0.24c-1.761,2.17,0.029,4.53,1.609,6.38
	c7.4,8.73,11.61,18.52,10.92,30.23c-0.35,6.03-5.83,10.73-11.529,9.04c-12.771-3.79-25.32-3.64-38.25-0.15
	c-5.37,1.45-11.051,2.17-16.44,3.89c-9.15,2.91-17.99,6.59-26.66,10.7c-16.55,7.84-32.76,16.38-48.56,25.62
	c-14.311,8.37-27.91,17.76-40.67,28.43c-10.44,8.73-20.01,18.23-28.49,28.79c-5.19,6.47-9.59,13.561-14.49,20.26
	c-6.78,9.261-15.35,16.66-25.98,20.811c-10.5,4.09-18.05,1.42-23.77-8.771c-3.49-6.22-5.87-13-4.24-20.46
	c0.15-0.66,0.41-1.859-0.8-1.939c-1.08-0.07-2.2-0.44-3.28,0.5c-2.14,1.84-3.98,4.1-4.85,6.56c-1.83,5.2-4.55,10.36-3.56,13.51
	c1.2,17.21,6.11,29.221,19.41,36.87c4.41,2.54,9.08,1.21,13.57,2.141c5.38,1.1,7.68,4.29,8.46,8.529
	c2.99,16.28,13.24,26.74,27.23,33.67c5.73,2.841,12.59,3.54,19.02,4.73c4.82,0.89,8.27,3.3,10.34,7.51
	c4.7,9.54,11.94,17.271,19.15,24.65c8.29,8.479,17.52,16.12,29.04,20.729c14.9,5.95,30.27,9.471,45.9,12.73
	c13.279,2.77,26.56,4.149,40.029,4.84c16.82,0.85,33.59,2.75,50.351,4.28c12.76,1.16,25.16,0.359,36.91-3.551
	c11.14-3.699,20.81-10.67,28.31-20.289c4.41-5.671,9.19-11.08,12.28-17.57c6.77-14.22,12.29-28.79,14.689-44.601
	C494.3,365.87,496.37,352.5,496.05,338.9z M258.95,247.45c4.979-4.59,10.74-8,16.43-11.34c11.5-6.76,23.48-12.67,35.19-19.08
	c11.97-6.56,24.399-12.24,37.199-16.73c10.28-3.61,21.271-5.28,33.561-5.37c2.93-1.08,6.82,0.86,10.86,1.15
	c7.55,0.56,13.76,4.54,17.649,10.57c5.87,9.11,10.94,18.79,15.65,28.57c1.56,3.24,1.859,7.54-1.811,10.78
	c-4.08,3.59-16.85,6-21.43,3.62c-3.08-1.6-5.78-4.03-6.73-7.14c-0.409-1.33,3.461-2.18,4.95-3.6c5.62-5.38,5.03-18.49-1.06-22.3
	c-11.01-6.87-20.851-4-24.05,8.76c-1.53,6.1-4.07,3.85-7.46,3.12c-2.681-0.58-5.561-0.68-8.311-0.44c-3.33,0.29-4.31,3.44-2.47,6.54
	c4.2,7.11,11.93,9.64,18.17,14.09c7.21,5.15,13.56,10.87,15.75,19.95c1.12,4.65-1.56,10.511-5.75,11.301
	c-2.78,0.529-5.61,1.069-8.53,1.22c-11.22,0.6-22.49-1.65-33.74,1.68c-7.02,2.07-13.369,5.141-17.52,10.65
	c-7.42,9.85-14.99,18.42-28.28,20.02c-16.6,2-24.52-0.279-30.989-17.06c-4.351-11.26-7.521-23-10.7-34.67
	C254.16,256.72,254.35,251.67,258.95,247.45z M203.91,367.92c-3.96-0.59-7.59-2.33-10.8-4.87c-8.67-6.89-13.42-15.89-15.4-26.74
	c-1.14-6.279,0.15-9.449,7.78-14.13c3.06-1.87,9.99-1.56,12.95,1.511c9.35,9.68,11.73,21.93,13.64,31.909
	C212.08,366.48,210.24,368.87,203.91,367.92z M468.18,366.64c-1.779,14.261-5.319,27.98-12.14,40.601
	c-10.88,20.149-26.92,33.16-50.98,31.5c-10.229-0.71-20.489,0-30.739-1.54c-8.891-1.33-18.011-0.2-27.08-0.95
	c-10.29-0.87-20.561-1.62-30.78-3.21c-17.21-2.67-33.979-6.64-49.26-15.44c-7.391-4.26-14.431-9.229-19.05-16.399
	c-9.25-14.33-12.48-30.75-15.15-47.33c-1.59-9.84-3.97-19.45-9.46-28.2c-3.34-5.32-8.31-9.3-11.16-14.89
	c-2.16-4.25-4.79-8.16-1.43-13.42c5.21-8.17,11.22-15.65,18.17-22.28c3.98-3.79,9.05-2.22,9.81,2.729c0.38,2.49,0.95,5,1.12,7.53
	c0.68,9.49,2.26,18.68,5.94,27.63c6.029,14.65,17.09,22.73,32.16,24.84c13.56,1.91,26.59-1.479,38.949-7.31
	c9.19-4.34,15.9-11.69,22.7-18.84c5.82-6.11,12.931-8.47,21.01-8.63c6.971-0.141,13.94-0.03,21.25-0.03
	c-4.199,6.72-7.909,13.67-12.579,19.91c-6.891,9.18-16.57,12.45-27.891,11.1c-2.72-0.319-5,0.41-6.16,3.181
	c-1.09,2.609,0.11,4.689,1.83,6.46c4.38,4.479,9.91,7,16.01,7.26c16.83,0.7,29.961-6.19,38.771-20.61
	c2.67-4.38,6.82-5.78,10.82-5.04c4.29,0.8,8.47,0.76,12.649,0.65c11.391-0.311,21.54-14.271,18.57-25.13
	c-1.25-4.55-5.54-5.7-8.9-2.38c-1.18,1.17-2.29,2.43-3.54,3.52c-3.3,2.89-6.68,3.99-11.479,3.29c-5.69-0.84-10.521-3.81-16.74-4.55
	c14.811-4.09,23.811-10.97,18.66-25.61c-0.58-1.62,0.57-1.99,2.24-2.12c7.649-0.58,14.67-2.62,21.069-7.35
	c2.561-1.89,3.5-5.14,6.7-6.57c5.24,9.92,10.59,19.5,15.33,29.5c8.14,17.181,10.93,35.4,12.57,53.931
	C470.7,350.53,469.19,358.58,468.18,366.64z M303.92,281.99c10.01,0,16.73-7.53,17.08-16.471c0.37-9.39-7.28-16.52-17.02-16.52
	c-9.221-1.71-16.921,8.83-16.9,16.22C287.11,274.2,294.93,282,303.92,281.99z"/>
<g>
	<path fill="#FFFFFF" d="M172.278,58.819c6.65,0,13.189,0.308,19.435,0.915c15.271,1.484,30.741,4.876,47.297,10.371
		c8.833,2.931,17.645,6.291,26.19,9.986c10.706,4.629,21.223,10.558,31.393,16.292c8.497,4.79,16.578,10.233,25.135,15.996
		l0.994,0.669c1.262,0.85,2.513,1.721,3.761,2.612c-34.172,6.879-67.813,21.137-103.737,43.768
		c-33.141,20.878-59.813,44.913-80.765,72.88c-0.193-1.174-0.385-2.36-0.579-3.559c-1.213-7.491-2.468-15.237-4.377-23.031
		c-0.632-2.581-1.255-5.164-1.877-7.747c-3.377-14.012-6.869-28.502-11.919-42.635c-3.548-9.928-8.652-21.129-19.608-28.927
		l-0.046-0.033l-0.047-0.033c-0.997-0.696-2.014-1.326-3.05-1.889c0.529-3.487,0.688-6.87,0.726-10.041
		c0.125-10.541-4.476-21.313-12.621-29.555c-1.239-1.254-2.541-2.429-3.896-3.523c5.78-2.995,11.566-5.737,17.536-8.063
		c22.58-8.797,40.122-13.138,56.881-14.076C163.573,58.946,168.007,58.819,172.278,58.819L172.278,58.819 M172.278,45.819
		c-4.648,0-9.284,0.139-13.904,0.397c-21.107,1.181-41.244,7.294-60.874,14.942C84.438,66.247,72.269,73.153,60.08,80
		c-0.764,1.522-2.527,1.455-3.678,2.335c-0.589,0.451-1.834,1.01-0.439,2.006c0.384-0.016,0.768-0.023,1.15-0.023
		c16.761,0,31.266,14.966,31.089,29.942c-0.085,7.169-0.884,13.871-4.871,19.949c1.098-0.199,2.175-0.298,3.23-0.298
		c3.399,0,6.572,1.031,9.52,3.09c7.911,5.631,11.831,14.11,14.904,22.71c5.716,15.996,9.368,32.593,13.411,49.1
		c3.238,13.223,4.528,26.69,7.397,39.924c1.522,7.026,2.394,14.581,0.928,21.993c23.182-42.486,56.249-74.657,96.952-100.299
		c39.904-25.139,81.91-42.835,129.904-46.111c-10.411-7.463-19.576-15.304-29.597-22.052c-8.863-5.968-17.712-11.967-27.005-17.206
		c-10.667-6.014-21.402-12.05-32.617-16.9c-8.881-3.84-17.981-7.315-27.256-10.393c-16.416-5.448-32.907-9.297-50.134-10.972
		C186.06,46.124,179.156,45.819,172.278,45.819L172.278,45.819z"/>
</g>
<path fill-rule="evenodd" clip-rule="evenodd" fill="#FFFFFF" d="M96.081,137c-3.878-2.971-8.363-3.311-12.999-3.001
	c-7.773,8.176-17.273,13.498-28.519,13.584c-15.122,0.117-28.721-9.054-32.478-26.145c-1.855-8.441-1.562-16.475,3.708-23.917
	c4.197-5.928,9.649-9.664,16.674-11.226C43.09,85.239,43.52,84.088,44.08,83c-1.084-4.213-3.866-5.523-7.914-4.575
	c-15.418,3.611-23.789,14.588-29.084,28.427c-6.255,16.348-2.976,31.623,7.563,44.92c8.014,10.113,19.215,15.306,32.338,16.3
	c9.897,0.75,19.386-0.239,28.599-4.042C86.223,159.64,96.327,146.915,96.081,137z"/>
<path fill-rule="evenodd" clip-rule="evenodd" fill="#FFFFFF" d="M321,265.52c-0.35,8.94-7.07,16.471-17.08,16.471
	c-8.99,0.01-16.81-7.79-16.84-16.771c-0.021-7.39,7.68-17.93,16.9-16.22C313.72,249,321.37,256.13,321,265.52z"/>
<path fill-rule="evenodd" clip-rule="evenodd" fill="#FFFFFF" d="M321,265.52c-0.35,8.94-7.07,16.471-17.08,16.471
	c-8.99,0.01-16.81-7.79-16.84-16.771c-0.021-7.39,7.68-17.93,16.9-16.22C313.72,249,321.37,256.13,321,265.52z"/>
<path fill-rule="evenodd" clip-rule="evenodd" fill="none" stroke="#FFFFFF" stroke-width="13" stroke-linecap="round" stroke-miterlimit="10" d="
	M125,308.167c0,0-8.5-44.5,19.333-69.333"/>
<path fill-rule="evenodd" clip-rule="evenodd" fill="none" stroke="#FFFFFF" stroke-width="9" stroke-linecap="round" stroke-miterlimit="10" d="
	M68.167,81.75c0,0-12.458-2.917-32.625,0.917"/>
<path fill-rule="evenodd" clip-rule="evenodd" fill="none" stroke="#FFFFFF" stroke-width="9" stroke-linecap="round" stroke-miterlimit="10" d="
	M400.667,134.333c0,0-9.499-16.167-51.666-13.167"/>
</svg>
